<svg height="2318" width="720" xmlns="http://www.w3.org/2000/svg">
<rect height="2318" fill="#555" width="720"></rect>
<text fill="#7f7" font-family="Courier New" font-size="12" xml:space="preserve">
<tspan x="10" y="26"></tspan>
<tspan x="10" y="42">&gt; npmdoc-swagger-converter@0.0.1 test /home/travis/build/npmdoc/node-npmdoc-swagger-converter</tspan>
<tspan x="10" y="58">&gt; (set -e; export PORT=$(utility2 shServerPortRandom); utility2 test test.js)</tspan>
<tspan x="10" y="74"></tspan>
<tspan x="10" y="90"></tspan>
<tspan x="10" y="106">[MODE_BUILD=npmTest] - 2017-03-25T12:41:14Z - npm-testing /home/travis/build/npmdoc/node-npmdoc-\</tspan>
<tspan x="10" y="122">swagger-converter</tspan>
<tspan x="10" y="138"></tspan>
<tspan x="10" y="154"></tspan>
<tspan x="10" y="170">covering $ /home/travis/.nvm/versions/node/v6.10.1/bin/node /home/travis/build/npmdoc/node-npmdo\</tspan>
<tspan x="10" y="186">c-swagger-converter/test.js</tspan>
<tspan x="10" y="202">merging file:///home/travis/build/npmdoc/node-npmdoc-swagger-converter/tmp/build/test-report.jso\</tspan>
<tspan x="10" y="218">n to test-report</tspan>
<tspan x="10" y="234">&gt; server listening on http-port 55716</tspan>
<tspan x="10" y="250">created apidoc file:///home/travis/build/npmdoc/node-npmdoc-swagger-converter/tmp/build/apidoc.h\</tspan>
<tspan x="10" y="266">tml</tspan>
<tspan x="10" y="282"></tspan>
<tspan x="10" y="298"></tspan>
<tspan x="10" y="314">browserTest - created electron entry-page /home/travis/build/npmdoc/node-npmdoc-swagger-converte\</tspan>
<tspan x="10" y="330">r/tmp/electron.15b057c28e50.e7920edaeaa6e.html</tspan>
<tspan x="10" y="346"></tspan>
<tspan x="10" y="362">[node test-case 1 of 6 passed] - testCase_buildLib_default</tspan>
<tspan x="10" y="378">[node test-case 2 of 6 passed] - testCase_buildReadme_default</tspan>
<tspan x="10" y="394">[node test-case 3 of 6 passed] - testCase_buildTest_default</tspan>
<tspan x="10" y="410"></tspan>
<tspan x="10" y="426">browserTest - created electron entry-page /home/travis/build/npmdoc/node-npmdoc-swagger-converte\</tspan>
<tspan x="10" y="442">r/tmp/electron.15b057c29360.8db1242b399d7.html</tspan>
<tspan x="10" y="458"></tspan>
<tspan x="10" y="474">Xlib:  extension "RANDR" missing on display ":99.0".</tspan>
<tspan x="10" y="490">Xlib:  extension "RANDR" missing on display ":99.0".</tspan>
<tspan x="10" y="506">&gt; server listening on http-port 56364</tspan>
<tspan x="10" y="522"></tspan>
<tspan x="10" y="538">/home/travis/build/npmdoc/node-npmdoc-swagger-converter/node_modules/utility2/lib.utility2.sh.ht\</tspan>
<tspan x="10" y="554">ml.js</tspan>
<tspan x="10" y="570"> #1 Line too long.</tspan>
<tspan x="10" y="586">    process.stdout.write('export npm_package_' + key.replace((/\W/g), '_') + '=' + JSON.stringif\</tspan>
<tspan x="10" y="602">y(value) + ';'); // Line 1445, Pos 116</tspan>
<tspan x="10" y="618"></tspan>
<tspan x="10" y="634"></tspan>
<tspan x="10" y="650">/home/travis/build/npmdoc/node-npmdoc-swagger-converter/node_modules/utility2/lib.utility2.sh.ht\</tspan>
<tspan x="10" y="666">ml.js</tspan>
<tspan x="10" y="682"> #1 Line too long.</tspan>
<tspan x="10" y="698">    process.stdout.write('export npm_package_' + key.replace((/\W/g), '_') + '=' + JSON.stringif\</tspan>
<tspan x="10" y="714">y(value) + ';'); // Line 1445, Pos 116</tspan>
<tspan x="10" y="730"></tspan>
<tspan x="10" y="746">merging file:///home/travis/build/npmdoc/node-npmdoc-swagger-converter/tmp/build/test-report.jso\</tspan>
<tspan x="10" y="762">n to test-report</tspan>
<tspan x="10" y="778">merging file:///home/travis/build/npmdoc/node-npmdoc-swagger-converter/tmp/build/test-report.jso\</tspan>
<tspan x="10" y="794">n to test-report</tspan>
<tspan x="10" y="810">Xlib:  extension "RANDR" missing on display ":99.0".</tspan>
<tspan x="10" y="826">[4863:0325/124115:WARNING:audio_manager.cc(314)] Multiple instances of AudioManager detected</tspan>
<tspan x="10" y="842">[4863:0325/124115:WARNING:audio_manager.cc(275)] Multiple instances of AudioManager detected</tspan>
<tspan x="10" y="858">Xlib:  extension "RANDR" missing on display ":99.0".</tspan>
<tspan x="10" y="874">[4859:0325/124115:WARNING:audio_manager.cc(314)] Multiple instances of AudioManager detected</tspan>
<tspan x="10" y="890">[4859:0325/124115:WARNING:audio_manager.cc(275)] Multiple instances of AudioManager detected</tspan>
<tspan x="10" y="906">[4886:0325/124116:ERROR:sandbox_linux.cc(343)] InitializeSandbox() called with multiple threads \</tspan>
<tspan x="10" y="922">in process gpu-process. </tspan>
<tspan x="10" y="938">[4863:0325/124116:ERROR:browser_gpu_channel_host_factory.cc(131)] Failed to create channel.</tspan>
<tspan x="10" y="954">[4902:0325/124116:ERROR:sandbox_linux.cc(343)] InitializeSandbox() called with multiple threads \</tspan>
<tspan x="10" y="970">in process gpu-process. </tspan>
<tspan x="10" y="986">[4859:0325/124116:ERROR:browser_gpu_channel_host_factory.cc(131)] Failed to create channel.</tspan>
<tspan x="10" y="1002"></tspan>
<tspan x="10" y="1018">browserTest - opened url file:///home/travis/build/npmdoc/node-npmdoc-swagger-converter/tmp/buil\</tspan>
<tspan x="10" y="1034">d/apidoc.html</tspan>
<tspan x="10" y="1050"></tspan>
<tspan x="10" y="1066"></tspan>
<tspan x="10" y="1082">browserTest - opened url http://127.0.0.1:55716?modeTest=1</tspan>
<tspan x="10" y="1098"></tspan>
<tspan x="10" y="1114">[4863:0325/124117:INFO:CONSOLE(203)] "----------|-----------|-----------|-----------|-----------\</tspan>
<tspan x="10" y="1130">|</tspan>
<tspan x="10" y="1146">File      |   % Stmts |% Branches |   % Funcs |   % Lines |</tspan>
<tspan x="10" y="1162">----------|-----------|-----------|-----------|-----------|</tspan>
<tspan x="10" y="1178">----------|-----------|-----------|-----------|-----------|</tspan>
<tspan x="10" y="1194">All files |       100 |       100 |       100 |       100 |</tspan>
<tspan x="10" y="1210">----------|-----------|-----------|-----------|-----------|</tspan>
<tspan x="10" y="1226">", source: file:///home/travis/build/npmdoc/node-npmdoc-swagger-converter/tmp/electron.15b057c29\</tspan>
<tspan x="10" y="1242">360.8db1242b399d7.html (203)</tspan>
<tspan x="10" y="1258">[4863:0325/124117:INFO:CONSOLE(203)] "created coverage file:///tmp/build/coverage.html/index.htm\</tspan>
<tspan x="10" y="1274">l", source: file:///home/travis/build/npmdoc/node-npmdoc-swagger-converter/tmp/electron.15b057c2\</tspan>
<tspan x="10" y="1290">9360.8db1242b399d7.html (203)</tspan>
<tspan x="10" y="1306">[node test-case 4 of 6 passed] - testCase_buildApp_default</tspan>
<tspan x="10" y="1322"></tspan>
<tspan x="10" y="1338">browserTest - created screen-capture file:///home/travis/build/npmdoc/node-npmdoc-swagger-conver\</tspan>
<tspan x="10" y="1354">ter/tmp/build/screen-capture.npmTest.browser._2Fhome_2Ftravis_2Fbuild_2Fnpmdoc_2Fnode-npmdoc-swa\</tspan>
<tspan x="10" y="1370">gger-converter_2Ftmp_2Fbuild_2Fapidoc.html.png</tspan>
<tspan x="10" y="1386"></tspan>
<tspan x="10" y="1402"></tspan>
<tspan x="10" y="1418">browserTest - exit-code 0 - file:///home/travis/build/npmdoc/node-npmdoc-swagger-converter/tmp/b\</tspan>
<tspan x="10" y="1434">uild/apidoc.html</tspan>
<tspan x="10" y="1450"></tspan>
<tspan x="10" y="1466">[node test-case 5 of 6 passed] - testCase_buildApidoc_default</tspan>
<tspan x="10" y="1482"></tspan>
<tspan x="10" y="1498">browserTest - created screen-capture file:///home/travis/build/npmdoc/node-npmdoc-swagger-conver\</tspan>
<tspan x="10" y="1514">ter/tmp/build/screen-capture.npmTest.browser..png</tspan>
<tspan x="10" y="1530"></tspan>
<tspan x="10" y="1546"></tspan>
<tspan x="10" y="1562">browserTest - exit-code 0 - http://127.0.0.1:55716?modeTest=1</tspan>
<tspan x="10" y="1578"></tspan>
<tspan x="10" y="1594"></tspan>
<tspan x="10" y="1610">browserTest - merged coverage from /home/travis/build/npmdoc/node-npmdoc-swagger-converter/tmp/c\</tspan>
<tspan x="10" y="1626">overage.npmTest.browser.%2F.json</tspan>
<tspan x="10" y="1642"></tspan>
<tspan x="10" y="1658"></tspan>
<tspan x="10" y="1674">browserTest - merging test-report from /home/travis/build/npmdoc/node-npmdoc-swagger-converter/t\</tspan>
<tspan x="10" y="1690">mp/test-report.npmTest.browser.%2F.json</tspan>
<tspan x="10" y="1706"></tspan>
<tspan x="10" y="1722">[node test-case 6 of 6 passed] - testCase_webpage_default</tspan>
<tspan x="10" y="1738">--------------------------------------|-----------|-----------|-----------|-----------|</tspan>
<tspan x="10" y="1754">File                                  |   % Stmts |% Branches |   % Funcs |   % Lines |</tspan>
<tspan x="10" y="1770">--------------------------------------|-----------|-----------|-----------|-----------|</tspan>
<tspan x="10" y="1786">   node-npmdoc-swagger-converter/     |       100 |       100 |       100 |       100 |</tspan>
<tspan x="10" y="1802">      example.js                      |       100 |       100 |       100 |       100 |</tspan>
<tspan x="10" y="1818">      lib.npmdoc_swagger_converter.js |       100 |       100 |       100 |       100 |</tspan>
<tspan x="10" y="1834">      test.js                         |       100 |       100 |       100 |       100 |</tspan>
<tspan x="10" y="1850">--------------------------------------|-----------|-----------|-----------|-----------|</tspan>
<tspan x="10" y="1866">All files                             |       100 |       100 |       100 |       100 |</tspan>
<tspan x="10" y="1882">--------------------------------------|-----------|-----------|-----------|-----------|</tspan>
<tspan x="10" y="1898"></tspan>
<tspan x="10" y="1914">created coverage file:///home/travis/build/npmdoc/node-npmdoc-swagger-converter/tmp/build/covera\</tspan>
<tspan x="10" y="1930">ge.html/index.html</tspan>
<tspan x="10" y="1946"></tspan>
<tspan x="10" y="1962">/home/travis/build/npmdoc/node-npmdoc-swagger-converter/node_modules/utility2/lib.utility2.sh.ht\</tspan>
<tspan x="10" y="1978">ml.js</tspan>
<tspan x="10" y="1994"> #1 Line too long.</tspan>
<tspan x="10" y="2010">    process.stdout.write('export npm_package_' + key.replace((/\W/g), '_') + '=' + JSON.stringif\</tspan>
<tspan x="10" y="2026">y(value) + ';'); // Line 1445, Pos 116</tspan>
<tspan x="10" y="2042"></tspan>
<tspan x="10" y="2058">merging file:///home/travis/build/npmdoc/node-npmdoc-swagger-converter/tmp/build/test-report.jso\</tspan>
<tspan x="10" y="2074">n to test-report</tspan>
<tspan x="10" y="2090"></tspan>
<tspan x="10" y="2106">-------------------------------------------------------</tspan>
<tspan x="10" y="2122">| test-report - buildNpmdoc - node - linux v6.10.1 - 2017-03-25T12:41:03.865Z</tspan>
<tspan x="10" y="2138">|   16229 ms            0 failed        6 passed      |</tspan>
<tspan x="10" y="2154">-------------------------------------------------------</tspan>
<tspan x="10" y="2170"></tspan>
<tspan x="10" y="2186">created test-report file:///home/travis/build/npmdoc/node-npmdoc-swagger-converter/tmp/build/tes\</tspan>
<tspan x="10" y="2202">t-report.html</tspan>
<tspan x="10" y="2218"></tspan>
<tspan x="10" y="2234"></tspan>
<tspan x="10" y="2250">npmTest - 0 failed tests</tspan>
<tspan x="10" y="2266"></tspan>
<tspan x="10" y="2282"></tspan>
<tspan x="10" y="2298">[MODE_BUILD=npmTest] - 2017-03-25T12:41:23Z - EXIT_CODE - 0</tspan>
</text>
</svg>
